<?xml version="1.0" standalone="no"?>
<!DOCTYPE svg PUBLIC "-//W3C//DTD SVG 20010904//EN"
 "http://www.w3.org/TR/2001/REC-SVG-20010904/DTD/svg10.dtd">
<svg version="1.0" xmlns="http://www.w3.org/2000/svg"
 width="2335.000000pt" height="676.000000pt" viewBox="0 0 2335.000000 676.000000"
 preserveAspectRatio="xMidYMid meet">
<metadata>
Created by potrace 1.14, written by Peter Selinger 2001-2017
</metadata>
<g transform="translate(0.000000,676.000000) scale(0.100000,-0.100000)"
fill="#000000" stroke="none">
<path d="M6954 6090 c-12 -5 -29 -19 -38 -32 -14 -20 -16 -148 -16 -1368 l0
-1346 -44 -90 c-295 -605 -1180 -745 -1695 -268 -117 108 -210 259 -251 406
-20 71 -20 99 -20 1335 0 957 -3 1268 -12 1288 -17 38 -58 55 -128 55 -70 0
-111 -17 -128 -55 -9 -20 -12 -509 -12 -2079 l0 -2054 -26 -6 c-14 -4 -48 -29
-74 -55 -106 -106 -107 -275 -1 -381 111 -111 254 -88 350 57 l31 46 0 688 0
689 85 -84 c175 -174 398 -292 658 -348 146 -31 408 -31 554 0 248 54 468 167
641 329 l72 68 0 -192 0 -192 -41 -11 c-60 -17 -133 -93 -153 -161 -9 -29 -16
-69 -16 -89 0 -136 110 -260 230 -260 76 0 161 57 200 133 11 23 30 53 40 67
20 25 20 56 20 1939 1 2098 5 1948 -56 1971 -31 12 -141 12 -170 0z"/>
</g>
</svg>
